<svg version="1.2" xmlns="http://www.w3.org/2000/svg" viewBox="0 0 638 616" width="638" height="616">
	<title>LFB-icon</title>
	<style>
		.s0 { fill: #52a4d3 } 
	</style>
	<path class="s0" d="m126.8 0.7h2.1q3.4 0 6.8 0h4.9q6.8 0 13.5 0 7.3 0 14.6 0 3.6 0 7.2 0 3.6 0 7.2 0 3.5 0 7.1 0 3.6 0 7.2 0 11.6 0 23.2 0h3.3 6.8q31.5 0 63 0 28.8 0 57.7 0 29.6-0.1 59.2-0.1 16.6 0 33.2 0 14.2 0 28.3 0 7.2 0 14.5 0 6.6 0 13.2 0 2.4 0 4.8 0 3.2 0 6.5 0h3.6c4.7 0.6 8.2 2 11.2 5.7 1.3 3.1 1.5 5.3 1.4 8.6v3.5 3.8 3.9q0 5-0.1 10.1 0 5.2-0.1 10.4 0 10.2-0.1 20.4h3.8q4.4-0.1 8.8-0.1 4.4 0 8.9 0 4.4-0.1 8.8-0.1 4.4 0 8.8 0 9.1 0 18.2-0.1 8.8-0.1 17.6-0.1 3.3 0 6.7 0 1.1 0 2.3 0 1.2 0 2.3-0.1 1.2 0 2.4 0 1.2 0 2.3 0h2.8c5.9 0 9.6 0.8 14.3 4.5 1.9 4.4 2.3 8.3 2.3 13.1v2.1q0 3.5 0 7v5q0 7 0 13.9 0 7.5 0 15 0 14.6 0 29.3 0 11.9 0 23.8v3.4 6.9q0 32.3 0 64.6 0 7.4 0 14.8 0 7.4 0 14.8 0 7.4 0 14.8 0 7.3 0 14.7 0.1 30.4 0.1 60.7 0 17.1 0 34.1 0 14.5 0 29 0 7.4 0 14.8 0 6.8 0 13.5 0 2.5 0 4.9 0 3.4 0 6.7v3.7c-0.5 4.7-2 8.1-5.5 11.3-4.3 1.6-8.3 1.5-12.8 1.4h-3q-1.3 0-2.5 0-1.2 0-2.5 0-1.2 0-2.4 0-1.3 0-2.5 0-3.1 0-6.2 0-3.1 0-6.2 0-3.1 0-6.2-0.1-3.1 0-6.2 0-9.2 0-18.4-0.1-4.5 0-9 0-4.5 0-9 0-4.5 0-9-0.1-4.5 0-9 0v43c10.9-0.1 10.9-0.1 21.7-0.3q2.1 0 4.2 0h2.1c5.2 0 8.6 0.8 13 3.3 2.8 3.8 3.4 6.5 3.4 11.2v3.7 4q0 1.6 0 3.2 0 1.5 0 3.1 0 1.6 0 3.2 0 1.6 0 3.2 0 5.5 0 11 0 4.2 0 8.5 0 3 0 6v3.7 3.3c-0.5 3.5-1.1 5.2-3.4 7.9-5.2 2.7-9.5 3.4-15.4 3.4h-2.5q-4.1 0-8.3 0-2.8 0-5.6 0-2.8 0-5.6 0-2.8 0-5.6 0-2.8 0-5.6 0-8.9 0-17.8 0-16.4 0-32.7 0-5.1 0-10.1 0-5.1 0-10.2 0-5 0-10.1 0-5 0-10.1 0-28.4 0.1-56.9 0.1h-2.1l-17.5-0.1q-33.9 0-67.9 0.1-10.6 0-21.1 0-10.6 0-21.1 0-10.6 0-21.1 0-10.6 0-21.2 0h-2q-15.1 0-30.2 0-17.2 0-34.4 0-8.8 0-17.6 0-8 0-16.1 0-2.9 0-5.8 0-1 0-2 0-0.9 0-1.9 0-1 0-2 0-1 0-2 0h-2.3c-5.3 0-9.9-1.2-14.2-4.5-2.1-3.4-2.3-6.1-2.3-10.1v-3.7-3.9l-0.1-4.2q0-4.3 0-8.6 0-5.5 0-11-0.1-4.2-0.1-8.5 0-0.7 0-1.5 0-0.7 0-1.5 0-0.7 0-1.5 0-0.7 0-1.5c0-10.1 0-10.1 2.2-13.8 4.1-4 7.5-4.4 13.2-4.4h2.2 2.1q3.8 0 7.6 0.1l17.2 0.1v-43l-9.4 0.1q-15.3 0.1-30.6 0.1-9.3 0-18.6 0.1-9 0.1-18 0.1-3.4 0-6.8 0-1.2 0-2.4 0-1.2 0-2.4 0.1-1.2 0-2.4 0-1.2 0-2.4 0h-2.8c-4.1 0-6.6-0.1-10.2-2.2-3.9-4.5-4.3-8.5-4.3-14.3v-2.1q0-3.5 0-7 0-2.4 0-4.7 0-2.4 0-4.8 0-2.4 0-4.7 0-2.4 0-4.8 0-7.5 0-15 0-14.7 0-29.4 0-12 0-23.9v-3.5-6.9q0-32.4 0-64.7 0.1-27.8 0-55.7 0-9.3 0-18.7 0-9.3 0-18.7 0-9.3 0-18.7 0-9.3 0-18.7 0-11.9 0-23.9 0-14.5 0-29.1 0-7.4 0-14.8 0-6.8 0-13.6 0-2.5 0-4.9 0-3.4 0-6.7v-3.8c0.3-3.2 0.8-5.4 2.3-8.2 5.6-4.3 10.2-4.6 17.1-4.5h3q4.8 0.1 9.7 0.1 3.4 0 6.7 0 8.9 0.1 17.8 0.1 9.1 0.1 18.1 0.1 17.8 0.1 35.6 0.2v-2.2q-0.1-2.6-0.1-5.2 0-2.5 0-5.1-0.1-2.6-0.1-5.2 0-2.5 0-5.1 0-5.3-0.1-10.6 0-1.5 0-3.1 0-1.5-0.1-3 0-1.5 0-3.1 0-1.5 0-3l-0.1-3.8v-3.6-3.2c0.6-3.6 1.9-5.2 4.5-7.8 4-2 7.4-2.3 11.8-2.3zm7.2 23.3v43h20c0.5-5.1 0.5-5.1 1-10.2 0.3-3.4 0.8-5.5 2.9-8.3 3.4-2.5 6.2-2.6 10.3-2.6h3.3 3.7l3.8-0.1q5.3 0 10.7 0 5.7 0 11.4 0 12.5 0 25 0h15.7q21.6 0 43.2 0h5.6q1.1 0 2.1 0 1.1 0 2.1 0 1.1 0 2.2 0 1 0 2.1 0 22.6 0 45.2-0.1 23.2 0 46.4 0 13 0 26.1 0 11.1-0.1 22.2-0.1 5.6 0 11.3 0 6.1 0 12.3 0h3.6 3.3 2.9c3.2 0.5 5 1.5 7.6 3.4 3.4 5.8 3.6 11.4 4 18h20v-43zm43 44v240h131v-240zm153 0v240h131v-240zm-306 22v382h130v-382zm460 0v382h130v-382zm-307 240v164h131v-164zm153 0v164h131v-164zm-196 164v43h370v-43h-20c-0.5 5.1-0.5 5.1-1 10.2-0.3 3.4-0.8 5.5-3 8.3-3.2 2.4-5.1 2.6-9.1 2.6h-3.4-3.6-3.9q-5.4 0.1-10.7 0.1-5.8 0-11.5 0-12.6 0-25.2 0h-15.8q-21.8 0-43.5 0h-5.7-5.6-2.9q-22.7 0-45.5 0.1-23.4 0-46.7 0-13.2 0-26.3 0-11.2 0.1-22.3 0.1-5.7 0-11.4 0-6.2 0-12.4 0h-3.6-3.4-2.9c-3.1-0.5-5-1.5-7.6-3.4-2.8-5.5-2.6-12-3-18zm-44 66v32h458v-32z"/>
	<path class="s0" d="m59.1 241.7h2.1q3.6 0 7.1 0h4.9q5.2 0 10.4 0 6.6 0 13.2-0.1 5.1 0 10.2 0 2.4 0 4.9 0 3.4 0 6.8 0h3.9c3.7 0.4 5.5 1.2 8.4 3.4 2.4 3.9 3.4 6.7 2.5 11.2-1.2 3.8-3 5.7-6.5 7.8-3.4 1.1-6 1.1-9.6 1.2h-2q-3.3 0-6.5 0h-4.6q-4.8 0-9.6 0-6.2 0.1-12.3 0.1-4.7 0-9.5 0-0.5 0-1.1 0-0.5 0-1.1 0-0.6 0-1.1 0-0.6 0-1.2 0-3.1 0.1-6.3 0.1h-3.7c-4.9-0.6-9-1.8-12.3-5.7-1.4-3.5-1.6-5.9-1.1-9.7 3.7-6.7 6.5-8.2 14.1-8.3zm461.8 109h2q3.3 0 6.5 0h4.6q4.8 0 9.5 0 6.1 0 12.2-0.1 4.8 0 9.5 0 2.2 0 4.5 0 3.1 0 6.3 0h3.6c4.9 0.6 9 1.8 12.3 5.6 1.4 3.6 1.6 6 1.1 9.8-2.1 4-3.8 6.4-8 8-3.2 0.3-3.2 0.3-7.1 0.3h-2.1q-3.5 0-7 0h-4.8q-5.1 0-10.2 0-6.5 0-13 0-5.1 0.1-10.1 0.1-2.4 0-4.8 0-3.3 0-6.7 0h-3.9c-3.6-0.4-5.4-1.2-8.3-3.4-2.4-4-3.4-6.7-2.3-11.3 1.3-3.7 1.3-3.7 3.3-6.7 4.4-1.9 8.2-2.3 12.9-2.3zm-459 0h2q3.3 0 6.6 0h4.5q4.8 0 9.6 0 6.1 0.1 12.2 0 4.7 0 9.5 0 2.2 0 4.5 0 0.8 0 1.5 0 0.8 0 1.6 0 0.8 0 1.6 0 0.8 0 1.6 0h3.6c3.4 0.3 6.1 1 9.3 2.3 2.8 3.4 3.8 6.6 4 11-1.2 3.8-2 6.2-5.2 8.7-3.5 1.6-6.1 1.7-10 1.7h-2.1q-3.5 0-6.9 0h-4.9q-5.1 0.1-10.1 0-6.5 0-13 0.1-5 0-10 0-2.4 0-4.8 0-3.3 0-6.7 0h-3.8c-4.7-0.7-8-2.6-10.9-6.3-1.3-4.7-1.1-8.1 1-12.5 4.2-4.8 9.2-5 15.3-5zm0-164h2q3.3 0 6.6 0h4.5q4.8 0 9.6 0 6.1 0.1 12.2 0 4.7 0 9.5 0 2.2 0 4.5 0 0.8 0 1.5 0 0.8 0 1.6 0 0.8 0 1.6 0 0.8 0 1.6 0h3.6c3.4 0.3 6.1 1 9.3 2.3 2.8 3.4 3.8 6.6 4 11-1.2 3.8-2 6.2-5.2 8.7-3.5 1.6-6.1 1.7-10 1.7h-2.1q-3.5 0-6.9 0h-4.9q-5.1 0.1-10.1 0-6.5 0-13 0.1-5 0-10 0-2.4 0-4.8 0-3.3 0-6.7 0h-3.8c-4.7-0.7-8-2.6-10.9-6.3-1.3-4.7-1.1-8.1 1-12.5 4.2-4.8 9.2-5 15.3-5zm458.2 219h2.1q3.4 0 6.8 0l4.8-0.1q5 0 10 0 6.4 0 12.8 0 4.9-0.1 9.9-0.1 2.3 0 4.7 0 0.8 0 1.6 0 0.9 0 1.7 0 0.8 0 1.6 0 0.9 0 1.7 0h3.8c4.6 0.7 7.9 2.6 10.8 6.3 1.2 4.2 1.1 7.8-0.5 11.9-3.3 3.9-7.4 5.1-12.3 5.7h-3.6-2q-0.9 0-1.7 0-0.8 0-1.6 0-0.8 0-1.6 0-0.9 0-1.7 0-1.7 0-3.5 0-1.8 0-3.5 0-1.8 0-3.6 0-1.7 0-3.5 0-1.5 0-3 0-1.6 0-3.1 0-1.5 0-3 0-1.6 0-3.1 0-4.7 0-9.4 0-2.3 0-4.5 0-0.8 0-1.6 0-0.8 0-1.5 0-0.8 0-1.6 0-0.8 0-1.6 0h-3.6c-4.5-0.5-7.9-2-11.1-5.2-1.6-2.9-2.1-4.8-2.2-8.2 0.9-3 2-5.6 4-8 4.1-2.1 7.5-2.3 12.1-2.3z"/>
	<path class="s0" d="m60 405.7h2.1q3.4 0 6.9 0h4.8q1.2 0 2.5 0 1.2 0 2.5 0 1.2 0 2.5 0 1.2 0 2.5 0 6.4 0 12.8-0.1 5 0 9.9 0 2.4 0 4.8 0 0.8 0 1.6 0 0.8 0 1.7 0 0.8 0 1.6 0 0.9 0 1.7 0h3.8c4.4 0.5 7 2 10 5.3 1.6 2.5 2.2 4.1 2.3 7.1-1.5 4.5-2.8 7.6-7 10-3.4 1.1-6.1 1.1-9.8 1.2h-2q-3.4 0-6.8 0l-2.4 0.1q-6.1 0-12.2 0-1.6 0-3.2 0-1.6 0-3.2 0-1.5 0-3.1 0.1-1.6 0-3.2 0-4.9 0-9.7 0-2.4 0-4.7 0.1-3.3 0-6.5 0h-3.8c-4.6-0.7-7.9-2.6-10.8-6.3-1.3-4.8-1.2-8.1 1.1-12.5 4-4.8 7.2-5 13.3-5z"/>
	<path class="s0" d="m520.1 241.7h2.1q3.4 0 6.8 0l4.8-0.1q5 0 10 0 6.4 0 12.8 0 4.9-0.1 9.9-0.1 2.3 0 4.7 0 0.8 0 1.6 0 0.9 0 1.7 0 0.8 0 1.6 0 0.9 0 1.7 0h3.8c4.6 0.7 7.9 2.6 10.8 6.3 1.2 4.2 1.1 7.8-0.5 11.9-3.3 3.9-7.4 5.1-12.3 5.7h-3.6-2q-0.9 0-1.7 0-0.8 0-1.6 0-0.8 0-1.6 0-0.9 0-1.7 0-1.7 0-3.5 0-1.8 0-3.5 0-1.8 0-3.6 0-1.7 0-3.5 0-1.5 0-3 0-1.6 0-3.1 0-1.5 0-3 0-1.6 0-3.1 0-4.7 0-9.4 0-2.3 0-4.5 0-0.8 0-1.6 0-0.8 0-1.5 0-0.8 0-1.6 0-0.8 0-1.6 0h-3.6c-4.5-0.5-7.9-2-11.1-5.2-1.6-2.9-2.1-4.8-2.2-8.2 0.9-3 2-5.6 4-8 4.1-2.1 7.5-2.3 12.1-2.3z"/>
	<path class="s0" d="m520.9 186.7h2q3.3 0 6.5 0h4.6q4.8 0 9.5 0 6.1 0 12.2-0.1 4.8 0 9.5 0 2.2 0 4.5 0 3.1 0 6.3 0h3.6c4.9 0.6 9 1.8 12.3 5.6 1.8 4.5 1.8 8.1 0 12.5-3.1 3.8-6.5 5.1-11.3 5.7h-3.7-2.1q-3.3 0-6.7 0-2.4 0-4.7 0-4.9 0.1-9.9 0-6.3 0-12.5 0.1-4.9 0-9.8 0-2.3 0-4.6 0-3.2 0-6.5 0h-3.7c-4.1-0.6-6.2-1.9-9.4-4.5-2.5-4.1-3.2-6-2.3-10.8 2.3-5.8 2.3-5.8 6-7.4 3.5-0.9 6.6-1.1 10.2-1.1z"/>
	<path class="s0" d="m518.4 296.5q1 0 2.1-0.1 3.6 0 7.2 0 2.5 0 5 0 5.2 0 10.4 0 6.7 0 13.3 0 5.2 0 10.3 0 2.5 0 4.9-0.1 3.5 0 6.9 0.1h4c4.6 0.8 6.2 2.3 9.5 5.6 1.6 4.1 1.5 7.8-0.2 11.9-2.8 3.3-4.6 5-9.1 5.5h-3.9-2.1q-0.9 0-1.8 0-0.9 0-1.8 0-0.9 0-1.7 0-0.9 0-1.8 0-1.9 0-3.8 0-1.9 0-3.8 0-1.9 0-3.8 0-1.9 0-3.8 0-6.6 0-13.3 0-5 0-10.1 0-2.5 0-4.9 0-0.8 0-1.7 0-0.8 0-1.7 0-0.8 0-1.7 0-0.9 0-1.7 0h-3.9c-3.7-0.4-5.5-1.2-8.4-3.4-2.4-3.9-3.4-6.7-2.5-11.2 1.7-7 7.4-8.3 13.9-8.3z"/>
	<path class="s0" d="m59.3 296.6h2.2q3.5 0 7.1 0h5q5.2-0.1 10.5 0 6.7 0 13.4-0.1 5.1 0 10.3 0 2.4 0 4.9 0 0.9 0 1.7 0 0.9 0 1.8 0 0.8 0 1.7 0 0.8 0 1.7 0h4c3.9 0.6 5.6 1.7 8.4 4.5 2.2 4.1 2.2 7.4 0.9 11.8-2.1 3.5-3.2 4.5-6.9 6.2-3.4 0.4-3.4 0.4-7.3 0.4h-2.1q-0.9 0.1-1.8 0.1-0.9 0-1.7 0-0.9 0-1.8 0-0.9 0-1.8 0h-4.9q-5.1 0-10.3 0-6.5 0-13.1 0.1-5.1 0-10.2 0-2.4 0-4.8 0-3.4 0-6.8 0h-3.9c-4.6-0.8-6.2-2.3-9.5-5.6-1.6-4.1-1.5-7.9 0.2-11.9 4.1-4.7 6.7-5.5 13.1-5.5z"/>
	<path class="s0" d="m518.4 132.5q1 0 2.1-0.1 3.6 0 7.2 0 2.5 0 5 0 5.2 0 10.4 0 6.7 0 13.3 0 5.2 0 10.3 0 2.5 0 4.9-0.1 3.5 0 6.9 0.1h4c4.6 0.8 6.2 2.3 9.5 5.6 1.6 4.1 1.5 7.8-0.2 11.9-2.8 3.3-4.6 5-9.1 5.5h-3.9-2.1q-0.9 0-1.8 0-0.9 0-1.8 0-0.9 0-1.7 0-0.9 0-1.8 0-1.9 0-3.8 0-1.9 0-3.8 0-1.9 0-3.8 0-1.9 0-3.8 0-6.6 0-13.3 0-5 0-10.1 0-2.5 0-4.9 0-0.8 0-1.7 0-0.8 0-1.7 0-0.8 0-1.7 0-0.9 0-1.7 0h-3.9c-3.7-0.4-5.5-1.2-8.4-3.4-2.4-3.9-3.4-6.7-2.5-11.2 1.7-7 7.4-8.3 13.9-8.3z"/>
	<path class="s0" d="m59.3 132.6h2.2q3.5 0 7.1 0h5q5.2-0.1 10.5 0 6.7 0 13.4-0.1 5.1 0 10.3 0 2.4 0 4.9 0 0.9 0 1.7 0 0.9 0 1.8 0 0.8 0 1.7 0 0.8 0 1.7 0h4c3.9 0.6 5.6 1.7 8.4 4.5 2.2 4.1 2.2 7.4 0.9 11.8-2.1 3.5-3.2 4.5-6.9 6.2-3.4 0.4-3.4 0.4-7.3 0.4h-2.1q-0.9 0.1-1.8 0.1-0.9 0-1.7 0-0.9 0-1.8 0-0.9 0-1.8 0h-4.9q-5.1 0-10.3 0-6.5 0-13.1 0.1-5.1 0-10.2 0-2.4 0-4.8 0-3.4 0-6.8 0h-3.9c-4.6-0.8-6.2-2.3-9.5-5.6-1.6-4.1-1.5-7.9 0.2-11.9 4.1-4.7 6.7-5.5 13.1-5.5z"/>
</svg>